<svg id="Layer_1" data-name="Layer 1" xmlns="http://www.w3.org/2000/svg" viewBox="0 0 261.26 320"><defs><style>.cls-1{fill:#bdbec0;}.cls-2{fill:#939598;}.cls-3{fill:#1c76bc;}.cls-4{fill:none;}.cls-5{fill:#29aae1;}.cls-6{fill:#fff;}.cls-7{fill:#ec2227;}</style></defs><path class="cls-1" d="M38,147.94l2.13-.27-1.25-18L58,105.93l8.37,31,2.23-.93-8.29-31.09L82,89.12l-1.76-1.7L59.4,102.9l-6-24.14,21-1.28V75.22L53.47,76.46,64.92,49.28,78,67.13,80,64.91,66.72,47.48,90.5,43.67,92,62.06H94.4L93.17,43.55l29.91-.14-2.67-3.14L92.36,41,86.25,24.48l37.48-3.31.53-2.4L85.45,22.35,77.09,2.26l-3.4-.79L47.49,30,26.74,76.92l9.68,51.55Zm-.89-18,1-1.45.12.84Zm47-104.7,5.3,16.16L66.25,45.1,66,44.74l-.4.46-.59,0L50.73,31.87l16.11-2.66,1.51.44.72-.71,15.06-3.73ZM83.3,23,69,26.81,76.28,4.54ZM74.13,4.44,66.71,27.2,50.25,29.9ZM48.71,32.81l14.2,13.31.47,1-.59,1.33-12.07,28L29.63,76.4Zm2.13,45.57L57,103.84,38.44,126.9,29.32,78.37Z" transform="translate(0 0)"/><path class="cls-1" d="M191.39,208l12.32,4-1.87,26.87-15.88-.7a19.94,19.94,0,0,0,6.09,5.89,12.92,12.92,0,0,1-11.66-1c-2.11-1.37-2.11.91-.87,4.34l21.21-2.74,2.38-.14,14.3,29.32L200.8,290.58a25.41,25.41,0,0,0,9.45,2.85l11.38-16.29,1.44-1.73,11.16-16-.32-4.87-13.16,16.26-13.67-27,26-2-.33-5-1-3.1-25.39,4.64,2.23-25.52,25,14.64,3.64-6.46-2,.31,13-2.38-12.77-37.78-2,.57-1.78-1.61,1.79-2.54-18-20.81L211,162.58l17.52,18.31L205.22,207l-9.46-20.58-17.85,17.09,12,3.94a14.15,14.15,0,0,0,1.41-1.08C191.34,206.91,191.36,207.43,191.39,208Zm39.85-22.68,3.56,36.25-25.9-12.86Z" transform="translate(0 0)"/><polygon class="cls-1" points="233.08 241.87 233.92 254.58 234.72 253.59 234.72 258.76 234.24 259.45 238.2 320 250.44 320 256.3 230.85 232.36 230.85 232.76 236.88 234.37 241.77 233.08 241.87"/><ellipse class="cls-2" cx="75.31" cy="2.95" rx="2.97" ry="2.95"/><ellipse class="cls-2" cx="48.71" cy="31.13" rx="2.97" ry="2.95"/><ellipse class="cls-2" cx="67.63" cy="28.17" rx="2.97" ry="2.95"/><ellipse class="cls-2" cx="84.99" cy="23.57" rx="2.97" ry="2.95"/><ellipse class="cls-2" cx="91.44" cy="42.4" rx="2.97" ry="2.95"/><ellipse class="cls-2" cx="64.66" cy="46.74" rx="2.97" ry="2.95"/><ellipse class="cls-2" cx="51.68" cy="77.38" rx="2.97" ry="2.95"/><ellipse class="cls-2" cx="58.73" cy="104.56" rx="2.97" ry="2.95"/><ellipse class="cls-2" cx="37.99" cy="128.89" rx="2.97" ry="2.95"/><ellipse class="cls-2" cx="28.22" cy="77.38" rx="2.97" ry="2.95"/><ellipse class="cls-2" cx="243.77" cy="230.85" rx="17.49" ry="17.42"/><ellipse class="cls-2" cx="231.62" cy="180.89" rx="5.58" ry="5.56"/><ellipse class="cls-2" cx="206.32" cy="209.1" rx="5.58" ry="5.56"/><ellipse class="cls-2" cx="203.71" cy="241.77" rx="5.58" ry="5.56"/><ellipse class="cls-2" cx="221.03" cy="274.88" rx="5.58" ry="5.56"/><ellipse class="cls-2" cx="92.05" cy="77.33" rx="21.42" ry="21.34"/><polygon class="cls-1" points="234.72 253.59 233.92 254.58 234.24 259.45 234.72 258.76 234.72 253.59"/><path class="cls-3" d="M.12,276.73a222.93,222.93,0,0,1,.67-26c8.53,9.31,25.77,26.1,39.71,26.9C58.3,278.7,27,289.45.12,276.73Z" transform="translate(0 0)"/><path class="cls-3" d="M2.55,237c1.18-6.61,2.78-12.19,4.84-15.66,3.16-5.3,7.67-10.59,12-16.18,5.47,14,18.91,39.64,46,47.31C99.54,262.14,29,259.22,2.55,237Z" transform="translate(0 0)"/><path class="cls-3" d="M226.6,115.62c-2,7.64-4.52,12.34-5.66,16.1A80,80,0,0,1,205.12,129,181.56,181.56,0,0,0,226.6,115.62Z" transform="translate(0 0)"/><path class="cls-3" d="M228.39,106.82c-19.59,8.56-45.64,10.76-34.94,6.41,9.7-3.94,27-24.7,35.35-35.14a91.61,91.61,0,0,1,.71,10.05A113.22,113.22,0,0,1,228.39,106.82Z" transform="translate(0 0)"/><path class="cls-3" d="M136.13,14.51c-2.52,23-6.49,39.13-7.45,29.26C128,37.22,124.5,24,121.58,13.89a71.69,71.69,0,0,0,10.29.6C133.32,14.47,134.75,14.48,136.13,14.51Z" transform="translate(0 0)"/><path class="cls-3" d="M158.91,17.75c-3.56,12.57-11,30.65-9.84,22.69.72-4.86.32-15.35-.28-24.82A89.45,89.45,0,0,1,158.91,17.75Z" transform="translate(0 0)"/><path class="cls-3" d="M189.28,35.9s-3.47-3.74-14.09-11.27c0,0,14-17,18.72-17.87C195.95,12.71,198.23,24.74,189.28,35.9Z" transform="translate(0 0)"/><polygon class="cls-4" points="57.02 103.83 50.84 78.38 29.32 78.38 38.44 126.9 57.02 103.83"/><polygon class="cls-4" points="74.13 4.44 50.25 29.9 66.71 27.2 74.13 4.44"/><polygon class="cls-4" points="62.79 48.43 63.38 47.1 62.91 46.12 48.71 32.81 29.63 76.4 50.72 76.46 62.79 48.43"/><polygon class="cls-4" points="68.35 29.66 66.84 29.21 50.73 31.87 65.02 45.25 65.61 45.2 66.01 44.74 66.25 45.1 89.43 41.38 84.14 25.22 84.14 25.22 69.07 28.95 68.35 29.66"/><polygon class="cls-4" points="37.1 129.92 38.26 129.31 38.14 128.47 37.1 129.92"/><polygon class="cls-4" points="83.3 22.98 76.28 4.54 69.02 26.81 83.3 22.98"/><polygon class="cls-4" points="234.37 241.77 232.76 236.88 233.08 241.87 234.37 241.77"/><polygon class="cls-4" points="234.72 253.59 233.92 254.58 234.24 259.45 234.72 258.76 234.72 253.59"/><path class="cls-4" d="M223.07,275.41l-1.44,1.73-11.38,16.29a67.41,67.41,0,0,0,8.59.56s-7.2,2.47-11.16,25.45c0,.18-.06.37-.09.56H238.2l-4-60.55Z" transform="translate(0 0)"/><path class="cls-4" d="M203.11,244.55l-2.38.14-21.21,2.74c2.12,5.84,7.86,15,13,15.18,0,0-5.7,5.43-9.67,4.94s5.46,9.64,15.38,10.63c0,0-5.31,7.75,2.55,12.4l16.61-16.71Z" transform="translate(0 0)"/><polygon class="cls-4" points="207.09 243.88 220.76 270.84 233.92 254.58 233.08 241.87 207.09 243.88"/><polygon class="cls-4" points="231.25 185.28 208.9 208.68 234.8 221.54 231.25 185.28"/><path class="cls-4" d="M203.71,212l-12.32-4c.33,5.93,1.92,13.13,4.63,15.6,0,0-10.42.24-14.38-5.19-3.19-4.36-2.38,10.18,4.32,19.81l15.88.7Z" transform="translate(0 0)"/><path class="cls-5" d="M191.33,206.4a14.15,14.15,0,0,1-1.41,1.08l1.47.48C191.36,207.43,191.34,206.91,191.33,206.4Z" transform="translate(0 0)"/><path class="cls-5" d="M198.19,293.21,207,298.1l3.26-4.67a25.41,25.41,0,0,1-9.45-2.85Z" transform="translate(0 0)"/><path class="cls-5" d="M63.57,163.75c-14.58-3.11-29.5-14.81-35.18-19.63a55.59,55.59,0,0,1,5.71,17.61C63.22,171.4,74.39,166.07,63.57,163.75Z" transform="translate(0 0)"/><path class="cls-5" d="M50.78,135c23.74,6.29,40.8,2.32,32.09.31-4.69-1.07-11.48-6-17.64-11.28h0a38.74,38.74,0,0,1-6,.63S67.92,133.79,50.78,135Z" transform="translate(0 0)"/><path class="cls-5" d="M193.29,160c-11.12,1.74,13.35,5.29,33.92-1.15a55.13,55.13,0,0,1-5.48-14C214.43,150.21,201.73,158.71,193.29,160Z" transform="translate(0 0)"/><path class="cls-5" d="M220.4,136.63c0-.26-.05-.53-.07-.79a11.44,11.44,0,0,1,.6-4.11A80,80,0,0,1,205.12,129c-9,4.69-19.12,8.84-29.19,10.56C152.28,143.57,194.35,141.82,220.4,136.63Z" transform="translate(0 0)"/><path class="cls-5" d="M79.76,111.46a13.25,13.25,0,0,0,7-1.29A30.12,30.12,0,0,1,79.2,118c6.12-1,11.89-2.94,16.07-6.19l-4.63,7.32s31.47-16.55,37.95-29c0,0,25.92,30.33,36.1,29,0,0-6.94-4.56-5.56-11.48,0,0,22.21,14.92,46,21.31a181.57,181.57,0,0,0,21.48-13.36,81.36,81.36,0,0,0,1.79-8.81c-19.59,8.56-45.64,10.76-34.94,6.41,9.7-3.94,27-24.7,35.35-35.14-3.18-25.15-15.91-37.64-15.91-37.64-3.47-29.66-14.64-31.88-18.11-33.61a1.34,1.34,0,0,0-.87-.07c2,6,4.32,18-4.63,29.14,0,0-3.47-3.74-14.09-11.27-1.41-1.12-7-4.35-16.27-6.87-3.56,12.57-11,30.65-9.84,22.69.72-4.86.32-15.35-.28-24.82a100.23,100.23,0,0,0-12.66-1.1c-2.52,23-6.49,39.13-7.45,29.26C128,37.22,124.5,24,121.58,13.89A57.55,57.55,0,0,1,108,10.54s1.21,11.68,11.63,13.23c0,0-6.25,6.75-13.28,6.23,0,0,7,6,11.46,5.19,0,0-5.47,12.46-13.8,15,0,0,8.85,1.3,11.46-1.29,0,0-2.08,13-7.81,16.86,0,0,7.81.52,9.15-2.56,0,0-1.34,13.2-5.77,16.3a8.74,8.74,0,0,0,4.43-.26S105,96.67,84.71,97.71c0,0,8.59,3.63,14.32,2.59,0,0-8.36,8.41-18,6.33,0,0-9.6-.89-13.5,7.15C67.53,113.79,75.34,111.2,79.76,111.46Z" transform="translate(0 0)"/><path class="cls-5" d="M210.26,293.43,207,298.1l-8.81-4.89,2.62-2.63c-7.85-4.65-2.55-12.4-2.55-12.4-9.92-1-19.35-11.12-15.38-10.63s9.67-4.94,9.67-4.94c-5.16-.16-10.9-9.34-13-15.18-1.24-3.43-1.24-5.72.87-4.34a12.92,12.92,0,0,0,11.66,1,19.94,19.94,0,0,1-6.09-5.89c-6.71-9.63-7.51-24.17-4.32-19.81,4,5.43,14.38,5.19,14.38,5.19-2.71-2.46-4.3-9.66-4.63-15.6l-1.47-.48a22.92,22.92,0,0,1-2.83,1.62c-2.82,1.51-20.71,9.35-35.35,12.6,4.7-1.1,18.23.37,4.84,5s-17.49,26.85-17.49,26.85c-2.6-15.94-15.25-19.65-15.25-19.65-18.39-4.58-9.55-9.83-8.63-10.34-1.93.76-19.74,2.46-26.34-4.11S60.6,208.36,60.6,208.36c6-2.59,5.21-10.38,5.21-10.38-13,1.32-24.85-10.65-32.33-20.63-.22.95-.48,1.91-.78,2.86-1.71,9.35-7.35,17.41-13.25,24.94,5.47,14,18.91,39.64,46,47.31C99.54,262.14,29,259.22,2.55,237c-.76,4.26-1.34,8.95-1.76,13.78,8.53,9.31,25.77,26.1,39.71,26.9,17.8,1-13.53,11.77-40.38-.95a119.66,119.66,0,0,0,1.19,14c1.27,8,2.63,18.95,3.82,29.26H207.59c0-.18.06-.37.09-.56,4-23,11.16-25.45,11.16-25.45A67.41,67.41,0,0,1,210.26,293.43Z" transform="translate(0 0)"/><ellipse class="cls-6" cx="92.05" cy="77.33" rx="10.67" ry="10.63"/><ellipse class="cls-6" cx="164.52" cy="77.33" rx="10.67" ry="10.63"/><path class="cls-6" d="M222.81,166.72c8.19,5.19,14.38,3.71,14.38,3.71-3.24-2-6.9-6.06-10-11.55-20.57,6.44-45,2.89-33.92,1.15,8.45-1.32,21.15-9.82,28.45-15.15a51.89,51.89,0,0,1-1.33-8.25c-26.05,5.19-68.12,6.94-44.47,2.91,10.07-1.71,20.22-5.86,29.19-10.56-23.77-6.39-46-21.31-46-21.31-1.38,6.92,5.56,11.48,5.56,11.48-10.19,1.33-36.1-29-36.1-29-6.48,12.46-37.95,29-37.95,29l4.63-7.32C91.09,115.08,85.32,117,79.2,118a34.17,34.17,0,0,1-14,6c6.16,5.24,13,10.2,17.64,11.28,8.71,2-8.34,6-32.09-.31a71.37,71.37,0,0,1-8.25,0s12,13.75-18.22,2.34a49.15,49.15,0,0,1,4.06,6.69h0c5.69,4.83,20.6,16.52,35.18,19.63,10.82,2.31-.35,7.64-29.47-2a42.74,42.74,0,0,1-.63,15.63C41,187.33,52.79,199.3,65.8,198c0,0,.74,7.78-5.21,10.38,0,0,21.58,4.45,28.28,11.12s24.41,4.87,26.34,4.11c-.92.51-9.76,5.76,8.63,10.34,0,0,12.65,3.71,15.25,19.65,0,0,4.09-22.2,17.49-26.85s-.14-6.12-4.84-5c14.64-3.25,32.53-11.09,35.35-12.6a18.91,18.91,0,0,0,4.23-2.71c-.12-5.74,1.07-9.62,3.71-5.32,5.45,8.9,19.84,10.87,19.84,10.87-11.41-7.9-10.91-33.36-6.44-25.45s16.37,8.65,16.37,8.65C220.58,191.68,214.63,161.53,222.81,166.72Z" transform="translate(0 0)"/><path class="cls-5" d="M142.83,82.85s15.19-.05,28.38,6.47-12.33,12.28-12.33,12.28Z" transform="translate(0 0)"/><ellipse class="cls-3" cx="164.52" cy="77.33" rx="2.97" ry="2.95"/><ellipse class="cls-7" cx="92.05" cy="77.33" rx="2.97" ry="2.95"/><path class="cls-7" d="M124.76,142.13l5.39-4.62,5.59,4S131.21,147.85,124.76,142.13Z" transform="translate(0 0)"/><path class="cls-5" d="M141.84,125.64c.35,1.79.27,3.7-2.65,6.49-2,1.91-5.45,3.46-7.42,4.25,0,5.41,10.2,3.08,21.17,1.21,0,0-18.47,10.43-22.68,4-4.21,6.46-22.68-4-22.68-4,11.37,2,21.17,4.31,21.17-1.21-2-.79-5.43-2.34-7.42-4.25-2.92-2.79-3-4.7-2.65-6.49,0,0,1.21-6.81,11.59-6.81S141.84,125.64,141.84,125.64Z" transform="translate(0 0)"/></svg>