<svg id="Layer_1" data-name="Layer 1" xmlns="http://www.w3.org/2000/svg" viewBox="0 0 201.81 231.08"><defs><style>.cls-1{fill:#fff;}.cls-2{fill:#29aae1;}</style></defs><path class="cls-1" d="M235,207c5.58-8.14,7.73-13.17,20.74-21.23A135.88,135.88,0,0,1,241,188.9c3-9.4,6-18.88,10.91-29q1.49-3.09,3.09-5.84,1.28-2.2,2.61-4.21c2.47-2.81,12.83-12.93,32.62-11.45-3.72-.35-13.92-1.5-19.77-3.9,10.91-10.83,21.65-18.27,26.22-32.72C304,78.65,280,43.59,252.08,46a50.12,50.12,0,0,0-14.43,4c-13.42,21.52-25.92,51.34-17,79.48A404.26,404.26,0,0,1,196,78.52c-.4.49-.8.94-1.2,1.36l-.77.77c-7,6.5-7.55-5-5.9-11.36,1.22-4.65-4.21,10.73-10.1,24.83.71,3.16,1.53,6.34,2.49,9.49l.24.77,0,.16.18.56q.36,1.13.74,2.25l.11.32.2.59h0l.2.58.29.8.13.35.39,1,.18.46.18.46.13.34.2.51.08.2.19.46.13.31.19.46.19.45.43,1,.16.37.2.45.18.41.25.56.26.57q.36.76.73,1.51l.2.4.21.42.21.41.21.4.42.81.29.55.07.13.34.62.07.12q.38.68.77,1.36h0l.39.66,0,0,.32.53.3.5.36.59.3.48.22.35.45.69.23.34.23.34.7,1,.24.34.16.23.26.37.27.37q.5.69,1,1.37l.28.37q.87,1.12,1.78,2.21l.27.32.58.68.2.22q.77.88,1.57,1.73l.32.34.19.2.35.36.34.34.7.69.6.58q.8.76,1.62,1.5l.37.33q.72.64,1.47,1.25l.43.35q.77.63,1.57,1.23l.34.26.08.06.35.26.32.23.29.21.35.25-.1,0h0l-.45-.19-.05,0-.44-.19-.15-.06-.59-.25-.09,0-.5-.22-.21-.09-.46-.2-.22-.09-.53-.23-.26-.12c-1.43-.62-3.18-1.41-5.22-2.34l-1.05-.48-.66-.31-.26-.12-.54-.25-.76-.35-1.78-.84-.46-.22-.35-.16-1.06-.51-.44-.21-.4-.2-1-.48-1-.49-.12-.06-.35-.17-.53-.26-.54-.26-1.17-.58-.53-.26-1.31-.65-.44-.22L183,134.68l-.85-.43L179.8,133l-.58-.3-1.17-.61-1.09-.58-1.36-.73-1.37-.74-1.38-.75-.1-.05-1.22-.67-1.29-.72-.61-.34-.62-.35q-2.13-1.2-4.29-2.45l-1-.56q-2.74-1.61-5.49-3.29l-.76-.47-1-.63-2.2-1.39-.85-.54c.87,11.47,1.53,24.53.67,32.84,14.71,7.73,31.35,12.51,48.56,9.91a408.44,408.44,0,0,1-53,16.13,144,144,0,0,1-8.84,24.77c11.36,11.42,25.33,20.63,42,23.42a409.48,409.48,0,0,1-54.61-1.07c-2.61,3.87-5.26,7.44-7.86,10.71,5.43,8.3,11.92,15.43,18.59,16.46,9.37,1.44-9.55,1.09-29.47-4a125.88,125.88,0,0,1-13.25,12.15L105.58,277s50.65-1.43,77.21-20.92S229.39,215.14,235,207Z" transform="translate(-96.19 -45.88)"/><path class="cls-1" d="M190.23,126l.3.5-.06-.11Z" transform="translate(-96.19 -45.88)"/><path class="cls-1" d="M175.61,130.79l-1.37-.74Z" transform="translate(-96.19 -45.88)"/><path class="cls-1" d="M190.9,127.1l-.36-.59-.06-.11-.24-.39.27.45Z" transform="translate(-96.19 -45.88)"/><path class="cls-1" d="M191.28,138.78l-1-.49Z" transform="translate(-96.19 -45.88)"/><path class="cls-1" d="M200,142.9l-1.05-.48Z" transform="translate(-96.19 -45.88)"/><path class="cls-1" d="M290.22,138.4l1.37.12Z" transform="translate(-96.19 -45.88)"/><path class="cls-2" d="M220.64,129.43A404.26,404.26,0,0,1,196,78.52c7.37-9,14.89-28.78,11.82-19.94-3,8.64,16.86-2.08,19.76-3.68l.3-.17,0,0h0A98.4,98.4,0,0,1,237.65,50C224.23,71.48,211.73,101.3,220.64,129.43Z" transform="translate(-96.19 -45.88)"/><path class="cls-2" d="M209.34,147l-.1,0h0l-.45-.19-.05,0-.44-.19-.15-.06-.59-.25-.09,0-.5-.22-.21-.09-.46-.2-.22-.09-.53-.23-.26-.12c-1.43-.62-3.18-1.41-5.22-2.34l-1.05-.48-.66-.31-.26-.12-.54-.25-.76-.35-1.78-.84-.46-.22-.35-.16-1.06-.51-.44-.21-.4-.2-1-.48-1-.49-.12-.06-1.42-.69-1.17-.58-.53-.26-1.31-.65-.44-.22L183,134.68l-.85-.43L179.8,133l-.58-.3-1.17-.61-1.09-.58-1.36-.73-1.37-.74-1.38-.75-.1-.05-1.22-.67-1.29-.72-.61-.34-.62-.35q-2.13-1.2-4.29-2.45l-1-.56q-2.74-1.61-5.49-3.29l-.76-.47-1-.63-2.2-1.39-.85-.54c-1.18-15.51-2.76-28.12-1.51-22.18,2.16,10.29,10.87,25.73,18.07,15.29l.93-1.52v0c1.3-2.36,2.73-5.34,4.19-8.62.95-2.13,1.91-4.38,2.87-6.66.71,3.16,1.53,6.34,2.49,9.49l.24.77,0,.16.18.56q.36,1.13.74,2.25l.11.32.2.59h0l.2.58.29.8.13.35.39,1,.18.46.18.46.13.34.2.51.08.2.19.46.13.31.19.46.19.45.43,1,.16.37.2.45.18.41.25.56.26.57q.36.76.73,1.51l.2.4.21.42.21.41.21.4.42.81.29.55.07.13.34.62.07.12.77,1.36h0l.39.66,0,0q.63,1.06,1.29,2.1l.22.35.45.69.23.34.23.34.7,1,.24.34.16.23.26.37.27.37q.5.69,1,1.37l.28.37q.87,1.12,1.78,2.21l.27.32.58.68.2.22q.77.88,1.57,1.73l.32.34.19.2.35.36.34.34.7.69.6.58q.8.76,1.62,1.5l.37.33q.72.64,1.47,1.25l.43.35q.77.63,1.57,1.23l.34.26.08.06.35.26.32.23.29.21Z" transform="translate(-96.19 -45.88)"/><path class="cls-2" d="M149.66,176.71q1-3.92,1.8-8,1-5,1.58-10.28.32-2.79.79-5.53v0q.16-1,.28-2.18c14.71,7.73,31.35,12.51,48.56,9.91A408.44,408.44,0,0,1,149.66,176.71Z" transform="translate(-96.19 -45.88)"/><path class="cls-2" d="M182.78,224.9a409.48,409.48,0,0,1-54.61-1.07l.48-.71a159.37,159.37,0,0,0,12.17-21.64C152.18,212.9,166.15,222.11,182.78,224.9Z" transform="translate(-96.19 -45.88)"/><path class="cls-2" d="M109.43,247c3.33-3.45,7-7.6,10.89-12.43,5.43,8.3,11.92,15.43,18.59,16.46C148.27,252.43,129.35,252.08,109.43,247Z" transform="translate(-96.19 -45.88)"/></svg>